<svg width="368" height="191" viewBox="0 0 368 191" fill="none" xmlns="http://www.w3.org/2000/svg">
<g opacity="0.2">
<path d="M183.185 0.0704128C192.691 -0.607067 208.025 3.72832 216.292 8.45132C256.484 45.6934 307.169 78.5614 346.025 116.442C361.668 131.695 374.872 155.175 366.296 177.28C364.541 181.799 360.421 187.33 355.46 191H338.204C333.161 185.141 324.008 173.559 320.896 170.505C305.775 155.736 286.453 142.225 270.558 128.075C253.134 112.59 219.989 73.8574 199.119 70.0248C159.275 62.708 144.832 94.5883 120.748 117.487C104.331 133.088 85.5706 146.948 69.4241 162.782C58.3457 173.65 50.7733 181.421 47.9579 191H0C1.45616 163.088 8.32686 136.235 28.8056 116.423C66.2099 80.2261 112.81 48.481 150.853 12.3423C159.178 6.14824 172.827 0.806037 183.185 0.0704128Z" fill="#167FB9"/>
<path d="M181.302 106.282C202.197 102.005 222.278 122.754 212.373 143.059C205.861 156.395 195.432 155.504 185.043 160.208C179.712 162.627 163.837 175.653 158.585 180.163C154.678 183.523 149.835 187.06 145.761 191H96.9256C114.11 174.793 149.693 150.837 157.771 138.82C162.345 125.793 165.001 109.67 181.321 106.321L181.302 106.282Z" fill="#167FB9"/>
<path d="M229.09 191C236.018 175.607 254.971 165.073 274.315 178.383C279.827 182.176 283.025 186.306 284.919 191H229.09Z" fill="#167FB9"/>
</g>
</svg>
