<svg width="41" height="41" viewBox="0 0 41 41" fill="none" xmlns="http://www.w3.org/2000/svg">
<path d="M20.5 38.7746C25.119 37.6417 28.9762 35.4046 32.0714 32.0633C35.1667 28.7221 36.9762 24.9926 37.5 20.8749H20.5V3.07502L4.51143 7.78103C4.14381 7.89734 3.86 8.07181 3.66 8.30443C3.4581 8.53705 3.35714 8.79837 3.35714 9.08838V19.8123C3.35714 20.1053 3.40476 20.4596 3.5 20.8749H20.5V38.7746ZM20.5 40.9089C20.241 40.9089 19.9676 40.8901 19.68 40.8523C19.3924 40.8145 19.1257 40.7579 18.88 40.6824C13.2552 38.983 8.78571 36.101 5.47143 32.0362C2.15714 27.9714 0.5 23.5712 0.5 18.8358V9.13143C0.5 8.36107 0.780953 7.66397 1.34286 7.04012C1.90476 6.41628 2.62381 5.96313 3.5 5.68066L18.8857 1.14911C19.4419 0.988993 19.98 0.908936 20.5 0.908936C21.02 0.908936 21.559 0.988993 22.1171 1.14911L37.5 5.68066C38.3762 5.96313 39.0952 6.41628 39.6571 7.04012C40.219 7.66397 40.5 8.36107 40.5 9.13143V18.8358C40.5 23.5712 38.8429 27.9714 35.5286 32.0362C32.2143 36.101 27.7448 38.983 22.12 40.6824C21.8724 40.7579 21.6057 40.8145 21.32 40.8523C21.0343 40.8901 20.761 40.9089 20.5 40.9089Z" fill="#0077B9"/>
</svg>
