<svg width="41" height="41" viewBox="0 0 41 41" fill="none" xmlns="http://www.w3.org/2000/svg">
<path d="M29.0714 40.9089H11.9286C10.3571 40.9089 9.07143 39.6232 9.07143 38.0518V33.7661H11.9286V38.0518H29.0714V33.7661H31.9286V38.0518C31.9286 39.6232 30.6429 40.9089 29.0714 40.9089ZM19.0714 19.1947V33.7661H21.9286V19.1947L25.6429 22.9089L27.6429 20.9089L20.5 13.7661L13.3571 20.9089L15.3571 22.9089L19.0714 19.1947Z" fill="white"/>
<path d="M33.0714 11.0518C31.7857 5.19465 26.6429 0.908936 20.5 0.908936C14.3571 0.908936 9.21429 5.19465 7.92857 11.0518C3.64286 11.9089 0.5 15.7661 0.5 20.1946C0.5 25.3375 4.64286 29.4803 9.78571 29.4803H14.7857V26.6232H9.78571C6.21429 26.6232 3.35714 23.7661 3.35714 20.1946C3.35714 16.9089 5.92857 14.0518 9.21429 13.7661H10.5L10.6429 12.6232C11.2143 7.48036 15.5 3.76608 20.5 3.76608C25.5 3.76608 29.7857 7.48036 30.3571 12.4804L30.5 13.7661L31.6429 13.9089C34.9286 14.1946 37.5 17.0518 37.5 20.3375C37.5 23.9089 34.6429 26.7661 31.0714 26.7661H26.2143V29.6232H31.2143C36.3571 29.6232 40.5 25.4803 40.5 20.3375C40.5 15.7661 37.3571 11.9089 33.0714 11.0518Z" fill="white"/>
</svg>
