<svg width="41" height="41" viewBox="0 0 41 41" fill="none" xmlns="http://www.w3.org/2000/svg">
<path d="M25.972 1.06843C27.012 1.56844 27.5461 3.08098 27.168 4.45102L17.5914 39.1719C17.2113 40.5419 16.0653 41.247 15.0272 40.7494C13.9871 40.2494 13.4531 38.7369 13.8311 37.3669L23.4078 2.64597C23.7878 1.27594 24.9339 0.570919 25.972 1.06843ZM5.3265 21.549L12.399 30.8842C13.1791 31.9142 13.1791 33.5843 12.399 34.6143C12.2187 34.858 11.9999 35.0525 11.7566 35.1855C11.5132 35.3185 11.2505 35.3872 10.9849 35.3872C10.7193 35.3872 10.4566 35.3185 10.2132 35.1855C9.96986 35.0525 9.75114 34.858 9.5708 34.6143L1.0842 23.4165C0.708596 22.9084 0.5 22.242 0.5 21.5502C0.5 20.8584 0.708596 20.192 1.0842 19.6839L9.5708 8.48362C9.75114 8.23988 9.96986 8.0454 10.2132 7.9124C10.4566 7.77939 10.7193 7.71073 10.9849 7.71073C11.2505 7.71073 11.5132 7.77939 11.7566 7.9124C11.9999 8.0454 12.2187 8.23988 12.399 8.48362C12.7752 8.99187 12.9841 9.65878 12.9841 10.3512C12.9841 11.0436 12.7752 11.7105 12.399 12.2187L5.3265 21.549ZM35.6727 21.549L28.6002 12.2187C28.2246 11.7106 28.016 11.0442 28.016 10.3524C28.016 9.66062 28.2246 8.99423 28.6002 8.48612C28.7805 8.24238 28.9992 8.0479 29.2426 7.9149C29.4859 7.78189 29.7486 7.71322 30.0143 7.71322C30.2799 7.71322 30.5426 7.78189 30.7859 7.9149C31.0293 8.0479 31.248 8.24238 31.4284 8.48612L39.915 19.6839C40.695 20.7139 40.695 22.384 39.915 23.4165L31.4284 34.6118C31.248 34.8555 31.0293 35.05 30.7859 35.183C30.5426 35.316 30.2799 35.3847 30.0143 35.3847C29.7486 35.3847 29.4859 35.316 29.2426 35.183C28.9992 35.05 28.7805 34.8555 28.6002 34.6118C28.2251 34.1038 28.0169 33.4379 28.0169 32.7467C28.0169 32.0555 28.2251 31.3897 28.6002 30.8817L35.6727 21.549Z" fill="#0077B9"/>
</svg>
