<svg width="25" height="21" viewBox="0 0 25 21" fill="none" xmlns="http://www.w3.org/2000/svg">
<path d="M21.2085 12.1807H1.58992C0.979564 12.1807 0.5 11.6321 0.5 10.9338C0.5 10.2356 0.979564 9.68695 1.58992 9.68695H21.2085C21.8188 9.68695 22.2984 10.2356 22.2984 10.9338C22.2984 11.6321 21.8188 12.1807 21.2085 12.1807Z" fill="#0077B9"/>
<path d="M15.7589 20.9088C15.6159 20.9108 15.4742 20.8786 15.3428 20.8142C15.2114 20.7497 15.0932 20.6546 14.9959 20.5348C14.5599 20.036 14.5599 19.263 14.9959 18.7642L21.8624 10.9089L14.9959 3.05356C14.5599 2.55481 14.5599 1.78175 14.9959 1.283C15.4319 0.784248 16.1076 0.784248 16.5436 1.283L24.173 10.0111C24.609 10.5099 24.609 11.283 24.173 11.7817L16.5436 20.5098C16.3256 20.7592 16.0422 20.8839 15.7807 20.8839L15.7589 20.9088Z" fill="#0077B9"/>
</svg>
