<svg width="41" height="41" viewBox="0 0 41 41" fill="none" xmlns="http://www.w3.org/2000/svg">
<path d="M11.5713 24.8318L10.1738 24.1453C5.4959 21.8477 3 18.3696 3 14.9089L3.00488 14.655C3.09789 12.0264 4.63563 9.26682 7.79199 7.05737C11.0586 4.77087 15.6249 3.40894 20.5 3.40894C25.3751 3.40894 29.9414 4.77087 33.208 7.05737C36.4662 9.33809 38 12.205 38 14.9089C38 18.3696 35.5041 21.8477 30.8262 24.1453L29.4287 24.8318V30.363C29.3345 30.3871 29.215 30.4089 29.0713 30.4089H11.9287C11.785 30.4089 11.6655 30.3871 11.5713 30.363V24.8318Z" stroke="#0077B9" stroke-width="5"/>
</svg>
